<?xml version="1.0" encoding="utf-8"?>
<!-- Generator: Adobe Illustrator 21.0.0, SVG Export Plug-In . SVG Version: 6.00 Build 0)  -->
<svg version="1.1" id="Layer_1" xmlns="http://www.w3.org/2000/svg" xmlns:xlink="http://www.w3.org/1999/xlink" x="0px" y="0px"
	 viewBox="0 0 240 240" style="enable-background:new 0 0 240 240;" xml:space="preserve">
<style type="text/css">
	.st0{fill:none;stroke:#000000;stroke-width:8.5039;stroke-linejoin:round;stroke-miterlimit:10;}
	.st1{fill:none;stroke:#000000;stroke-width:8.5039;stroke-linecap:round;stroke-linejoin:round;stroke-miterlimit:10;}
	.st2{opacity:0.38;}
</style>
<g>
	<g>
		<path class="st0" d="M6.5,33.4c3.1,61.9,6.1,99.7,9.2,161.6c34.7-1.4,69.3-2.1,104.1-2.2c0-61.9,0-99.8,0-161.8
			C82,31.1,44.2,31.9,6.5,33.4z"/>
		<path class="st0" d="M233.5,33.4c-37.9-1.5-75.8-2.3-113.8-2.4c0,61.9,0,99.8,0,161.8c34.9,0.1,69.7,0.8,104.5,2.2
			C227.4,133.1,230.4,95.2,233.5,33.4z"/>
	</g>
</g>
<g>
	<g>
		<path class="st1" d="M15.7,209.5c34.7-1.4,69.3-2.1,104.1-2.2c34.9,0.1,69.7,0.8,104.5,2.2"/>
	</g>
</g>
<g class="st2">
	<g>
		<g>
			<path class="st1" d="M27.5,71c24.5-0.9,49-1.4,73.5-1.6"/>
		</g>
	</g>
	<g>
		<g>
			<path class="st1" d="M27.5,109.5c24.5-0.9,49-1.4,73.5-1.6"/>
		</g>
	</g>
	<g>
		<g>
			<path class="st1" d="M27.5,148c24.5-0.9,49-1.4,73.5-1.6"/>
		</g>
	</g>
</g>
<g class="st2">
	<g>
		<g>
			<path class="st1" d="M212,71c-24.5-0.9-49-1.4-73.5-1.6"/>
		</g>
	</g>
	<g>
		<g>
			<path class="st1" d="M212,109.5c-24.5-0.9-49-1.4-73.5-1.6"/>
		</g>
	</g>
	<g>
		<g>
			<path class="st1" d="M212,148c-24.5-0.9-49-1.4-73.5-1.6"/>
		</g>
	</g>
</g>
</svg>
